<svg width="49" height="48" viewBox="0 0 49 48" fill="none" xmlns="http://www.w3.org/2000/svg">
<g id="simple-icons:threads">
<path id="Vector" d="M35.986 22.246C35.7779 22.1471 35.5679 22.0524 35.356 21.962C34.986 15.134 31.256 11.226 24.992 11.186H24.908C21.16 11.186 18.046 12.786 16.128 15.696L19.572 18.058C21.004 15.884 23.252 15.42 24.91 15.42H24.966C27.028 15.434 28.586 16.034 29.592 17.204C30.326 18.054 30.816 19.232 31.058 20.716C29.1017 20.3983 27.1158 20.3024 25.138 20.43C19.184 20.774 15.354 24.246 15.612 29.072C15.742 31.52 16.962 33.626 19.046 35.002C20.806 36.166 23.076 36.734 25.436 36.606C28.55 36.434 30.992 35.246 32.696 33.074C33.992 31.424 34.81 29.286 35.172 26.592C36.656 27.488 37.756 28.666 38.364 30.082C39.398 32.492 39.458 36.45 36.228 39.676C33.398 42.504 29.996 43.726 24.856 43.764C19.154 43.724 14.84 41.894 12.036 38.33C9.41 34.99 8.054 30.17 8.004 24C8.054 17.83 9.41 13.008 12.036 9.67C14.84 6.106 19.152 4.278 24.856 4.236C30.598 4.276 34.986 6.116 37.898 9.696C39.326 11.454 40.402 13.662 41.112 16.236L45.148 15.16C44.288 11.99 42.934 9.26 41.094 6.994C37.36 2.4 31.9 0.048 24.87 0H24.842C17.82 0.048 12.426 2.41 8.8 7.02C5.572 11.12 3.908 16.83 3.852 23.984V24.016C3.908 31.172 5.572 36.878 8.798 40.98C12.424 45.59 17.822 47.952 24.842 48H24.87C31.11 47.956 35.508 46.322 39.13 42.702C43.872 37.966 43.73 32.03 42.166 28.386C41.046 25.772 38.908 23.65 35.986 22.246ZM25.212 32.376C22.602 32.524 19.892 31.352 19.756 28.844C19.656 26.984 21.08 24.906 25.372 24.66C25.864 24.63 26.346 24.618 26.82 24.618C28.38 24.618 29.836 24.768 31.162 25.058C30.668 31.234 27.768 32.236 25.212 32.376Z" fill="white"/>
</g>
</svg>
