<svg width="49" height="48" viewBox="0 0 49 48" fill="none" xmlns="http://www.w3.org/2000/svg">
<g id="devicon:facebook">
<path id="Vector" d="M44.2437 1.81104H4.76C3.40759 1.81104 2.31125 2.90738 2.31125 4.25979V43.7435C2.31125 45.0959 3.40759 46.1923 4.76 46.1923H44.2437C45.5962 46.1923 46.6925 45.0959 46.6925 43.7435V4.25979C46.6925 2.90738 45.5962 1.81104 44.2437 1.81104Z" fill="#3D5A98"/>
<path id="Vector_2" d="M32.93 46.1886V29.0024H38.6975L39.56 22.3049H32.93V18.0299C32.93 16.0911 33.47 14.7674 36.2487 14.7674H39.7962V8.76739C38.0784 8.58835 36.3521 8.50323 34.625 8.51239C29.5175 8.51239 26 11.6249 26 17.3661V22.3049H20.2325V29.0024H26V46.1886H32.93Z" fill="white"/>
</g>
</svg>
