<svg width="16" height="16" viewBox="0 0 16 16" fill="none" xmlns="http://www.w3.org/2000/svg">
<g clip-path="url(#clip0_105_791)">
<path d="M15.5728 -3.19775C15.8084 -3.44678 16.0915 -3.64605 16.4053 -3.78381C16.7192 -3.92156 17.0575 -3.99499 17.4003 -3.99975C17.743 -4.00452 18.0832 -3.94053 18.4008 -3.81156C18.7184 -3.68259 19.0069 -3.49126 19.2493 -3.24888C19.4917 -3.0065 19.683 -2.71799 19.812 -2.4004C19.9409 -2.08281 20.0049 -1.74259 20.0002 -1.39985C19.9954 -1.05711 19.922 -0.718799 19.7842 -0.40492C19.6465 -0.0910413 19.4472 0.192037 19.1982 0.427582L11.6842 7.94154C11.6743 7.95146 11.6664 7.96325 11.661 7.97624C11.6556 7.98922 11.6528 8.00313 11.6528 8.01719C11.6528 8.03124 11.6556 8.04516 11.661 8.05814C11.6664 8.07112 11.6743 8.08292 11.6842 8.09284L19.1982 15.6068C19.4395 15.8442 19.6315 16.127 19.763 16.439C19.8945 16.7509 19.9629 17.0858 19.9643 17.4243C19.9657 17.7629 19.9001 18.0983 19.7712 18.4114C19.6424 18.7244 19.4528 19.0088 19.2134 19.2482C18.9741 19.4876 18.6897 19.6773 18.3767 19.8062C18.0637 19.9352 17.7282 20.0009 17.3897 19.9996C17.0512 19.9982 16.7163 19.9299 16.4043 19.7984C16.0923 19.667 15.8094 19.4751 15.572 19.2338L8.05803 11.7199C8.04811 11.7099 8.03632 11.702 8.02334 11.6967C8.01035 11.6913 7.99644 11.6885 7.98238 11.6885C7.96833 11.6885 7.95441 11.6913 7.94143 11.6967C7.92845 11.702 7.91665 11.7099 7.90673 11.7199L0.392775 19.2338C0.155383 19.4752 -0.127444 19.6671 -0.439394 19.7986C-0.751343 19.9301 -1.08624 19.9986 -1.42477 20C-1.7633 20.0014 -2.09875 19.9358 -2.41179 19.8069C-2.72483 19.678 -3.00926 19.4884 -3.24866 19.2491C-3.48807 19.0097 -3.67772 18.7254 -3.80667 18.4124C-3.93562 18.0993 -4.00132 17.7639 -3.99998 17.4254C-3.99864 17.0868 -3.93029 16.7519 -3.79887 16.44C-3.66745 16.128 -3.47556 15.8451 -3.23427 15.6077L4.27969 8.0937C4.28964 8.08377 4.29753 8.07198 4.30292 8.059C4.30831 8.04602 4.31108 8.0321 4.31108 8.01804C4.31108 8.00399 4.30831 7.99007 4.30292 7.97709C4.29753 7.96411 4.28964 7.95232 4.27969 7.94239L-3.23427 0.428437C-3.70879 -0.0537641 -3.97355 -0.703937 -3.97088 -1.38046C-3.9682 -2.05698 -3.69831 -2.70504 -3.21999 -3.18347C-2.74167 -3.66191 -2.09367 -3.93195 -1.41715 -3.93479C-0.740628 -3.93762 -0.0903928 -3.67302 0.39192 -3.19861L7.90587 4.31535C7.9158 4.3253 7.92759 4.33319 7.94057 4.33858C7.95356 4.34397 7.96747 4.34674 7.98153 4.34674C7.99558 4.34674 8.0095 4.34397 8.02248 4.33858C8.03546 4.33319 8.04725 4.3253 8.05718 4.31535L15.5711 -3.19861L15.5728 -3.19775Z" fill="#F0F0F0"/>
</g>
<defs>
<clipPath id="clip0_105_791">
<rect width="16" height="16" fill="white"/>
</clipPath>
</defs>
</svg>
