<svg width="36" height="37" viewBox="0 0 36 37" fill="none" xmlns="http://www.w3.org/2000/svg">
<g id="logo">
<path id="Exclude" fill-rule="evenodd" clip-rule="evenodd" d="M18 36.5C27.9411 36.5 36 28.4411 36 18.5C36 8.55887 27.9411 0.5 18 0.5C8.05887 0.5 0 8.55887 0 18.5C0 28.4411 8.05887 36.5 18 36.5ZM28.9558 9.08917V8.54705C28.5402 8.56512 28.0162 8.58319 27.3837 8.60126C26.7693 8.61933 26.1459 8.62837 25.5134 8.62837H24.8628H24.2394L18.4098 24.2517L12.4484 8.54705C12.1592 8.56512 11.7978 8.58319 11.3641 8.60126C10.9485 8.61933 10.5419 8.62837 10.1444 8.62837C9.69259 8.62837 9.23179 8.61933 8.76195 8.60126C8.31019 8.58319 7.9307 8.56512 7.6235 8.54705V9.08917C8.2379 9.10724 8.6987 9.17952 9.00591 9.30602C9.33117 9.41444 9.54802 9.63128 9.65645 9.95656C9.76487 10.2638 9.81908 10.7517 9.81908 11.4203V24.5937C9.81908 25.2443 9.76487 25.7593 9.65645 26.1388C9.54802 26.5002 9.33117 26.7622 9.00591 26.9248C8.6987 27.0694 8.2379 27.1598 7.6235 27.1959V27.738C7.9307 27.7019 8.31019 27.6838 8.76195 27.6838C9.23179 27.6657 9.69259 27.6567 10.1444 27.6567C10.6142 27.6567 11.1111 27.6657 11.6352 27.6838C12.1592 27.6838 12.5839 27.7019 12.9092 27.738V27.1959C12.2044 27.1598 11.6713 27.0694 11.3099 26.9248C10.9666 26.7622 10.7316 26.5002 10.6052 26.1388C10.4967 25.7593 10.4425 25.2443 10.4425 24.5937V10.2818L17.2732 27.8735H17.7069L24.2394 10.3291V24.8648C24.2394 25.5153 24.1852 26.0032 24.0768 26.3285C23.9684 26.6538 23.7515 26.8706 23.4262 26.979C23.119 27.0875 22.6582 27.1598 22.0438 27.1959V27.738C22.4233 27.7019 22.9203 27.6838 23.5347 27.6838C24.1491 27.6657 24.8086 27.6567 25.5134 27.6567C26.1459 27.6567 26.7693 27.6657 27.3837 27.6838C28.0162 27.6838 28.5402 27.7019 28.9558 27.738V27.1959C28.3414 27.1598 27.8716 27.0875 27.5463 26.979C27.2391 26.8706 27.0313 26.6538 26.9229 26.3285C26.8145 26.0032 26.7603 25.5153 26.7603 24.8648V11.4203C26.7603 10.7517 26.8145 10.2638 26.9229 9.95656C27.0313 9.63128 27.2391 9.41444 27.5463 9.30602C27.8716 9.17952 28.3414 9.10724 28.9558 9.08917Z" fill="white"/>
</g>
</svg>
